<svg width="25" height="25" viewBox="0 0 25 25" fill="none" xmlns="http://www.w3.org/2000/svg">
<path d="M5.26904 11.5C5.26657 10.6145 5.43885 9.73715 5.77603 8.91829C6.1132 8.09944 6.60864 7.35516 7.23394 6.7281C7.85925 6.10104 8.60214 5.60353 9.42006 5.26407C10.238 4.92461 11.1148 4.74988 12.0004 4.74988C12.8859 4.74988 13.7628 4.92461 14.5807 5.26407C15.3986 5.60353 16.1415 6.10104 16.7668 6.7281C17.3921 7.35516 17.8876 8.09944 18.2247 8.91829C18.5619 9.73715 18.7342 10.6145 18.7317 11.5V11.5C18.7317 14.8578 19.4342 16.8062 20.0529 17.8711C20.1196 17.9849 20.1551 18.1143 20.1558 18.2461C20.1565 18.378 20.1224 18.5077 20.0569 18.6222C19.9915 18.7367 19.8971 18.8319 19.7831 18.8983C19.6691 18.9646 19.5397 18.9997 19.4078 19H4.59222C4.46034 18.9997 4.33087 18.9646 4.21689 18.8982C4.1029 18.8319 4.00844 18.7366 3.94301 18.6221C3.87759 18.5076 3.84352 18.3779 3.84425 18.246C3.84498 18.1141 3.88048 17.9847 3.94716 17.871C4.56622 16.806 5.26904 14.8576 5.26904 11.5H5.26904Z" stroke="#18191C" stroke-width="1.5" stroke-linecap="round" stroke-linejoin="round"/>
<path d="M9 19V19.75C9 20.5456 9.31607 21.3087 9.87868 21.8713C10.4413 22.4339 11.2044 22.75 12 22.75C12.7956 22.75 13.5587 22.4339 14.1213 21.8713C14.6839 21.3087 15 20.5456 15 19.75V19" stroke="#18191C" stroke-width="1.5" stroke-linecap="round" stroke-linejoin="round"/>
<path d="M17.1968 3.2489C18.7229 4.21233 19.9531 5.57872 20.7516 7.19724" stroke="#18191C" stroke-width="1.5" stroke-linecap="round" stroke-linejoin="round"/>
<path d="M3.24829 7.19724C4.04681 5.57872 5.27703 4.21233 6.80315 3.2489" stroke="#18191C" stroke-width="1.5" stroke-linecap="round" stroke-linejoin="round"/>
<circle cx="18" cy="7" r="6" fill="#E05151" stroke="white" stroke-width="2"/>
</svg>
