<?xml version="1.0" encoding="UTF-8"?>
<svg xmlns="http://www.w3.org/2000/svg" xmlns:xlink="http://www.w3.org/1999/xlink" width="20px" height="20px" viewBox="0 0 20 20" version="1.1">
<g id="surface1">
<path style=" stroke:none;fill-rule:nonzero;fill:rgb(0%,0%,0%);fill-opacity:1;" d="M 7.332031 12.332031 C 7.332031 12.519531 7.480469 12.667969 7.667969 12.667969 L 9 12.667969 C 9.183594 12.667969 9.332031 12.519531 9.332031 12.332031 L 9.332031 10.332031 C 9.332031 10.148438 9.183594 10 9 10 L 7.667969 10 C 7.480469 10 7.332031 10.148438 7.332031 10.332031 Z M 8 10.667969 L 8.667969 10.667969 L 8.667969 12 L 8 12 Z M 8 10.667969 "/>
<path style=" stroke:none;fill-rule:nonzero;fill:rgb(0%,0%,0%);fill-opacity:1;" d="M 7.667969 8.667969 L 9 8.667969 C 9.183594 8.667969 9.332031 8.519531 9.332031 8.332031 L 9.332031 6.332031 C 9.332031 6.148438 9.183594 6 9 6 L 7.667969 6 C 7.480469 6 7.332031 6.148438 7.332031 6.332031 L 7.332031 8.332031 C 7.332031 8.519531 7.480469 8.667969 7.667969 8.667969 Z M 8 6.667969 L 8.667969 6.667969 L 8.667969 8 L 8 8 Z M 8 6.667969 "/>
<path style=" stroke:none;fill-rule:nonzero;fill:rgb(0%,0%,0%);fill-opacity:1;" d="M 5.171875 6.285156 L 10 3.386719 L 14.828125 6.285156 C 14.882812 6.316406 14.941406 6.332031 15 6.332031 C 15.113281 6.332031 15.222656 6.277344 15.285156 6.171875 C 15.378906 6.011719 15.328125 5.808594 15.171875 5.714844 L 10.332031 2.8125 L 10.332031 0.667969 L 12 0.667969 L 12 1.332031 L 11 1.332031 C 10.816406 1.332031 10.667969 1.480469 10.667969 1.667969 C 10.667969 1.851562 10.816406 2 11 2 L 12.332031 2 C 12.519531 2 12.667969 1.851562 12.667969 1.667969 L 12.667969 0.332031 C 12.667969 0.148438 12.519531 0 12.332031 0 L 10 0 C 9.816406 0 9.667969 0.148438 9.667969 0.332031 L 9.667969 2.8125 L 4.828125 5.714844 C 4.671875 5.808594 4.621094 6.011719 4.714844 6.171875 C 4.808594 6.328125 5.011719 6.378906 5.171875 6.285156 Z M 5.171875 6.285156 "/>
<path style=" stroke:none;fill-rule:nonzero;fill:rgb(0%,0%,0%);fill-opacity:1;" d="M 3.667969 12.667969 C 3.851562 12.667969 4 12.519531 4 12.332031 L 4 10.332031 C 4 10.148438 3.851562 10 3.667969 10 L 2.332031 10 C 2.148438 10 2 10.148438 2 10.332031 L 2 11 C 2 11.183594 2.148438 11.332031 2.332031 11.332031 C 2.519531 11.332031 2.667969 11.183594 2.667969 11 L 2.667969 10.667969 L 3.332031 10.667969 L 3.332031 12.332031 C 3.332031 12.519531 3.480469 12.667969 3.667969 12.667969 Z M 3.667969 12.667969 "/>
<path style=" stroke:none;fill-rule:nonzero;fill:rgb(0%,0%,0%);fill-opacity:1;" d="M 6 17 L 6 7.332031 C 6 7.148438 5.851562 7 5.667969 7 C 5.480469 7 5.332031 7.148438 5.332031 7.332031 L 5.332031 17 C 5.332031 17.183594 5.480469 17.332031 5.667969 17.332031 C 5.851562 17.332031 6 17.183594 6 17 Z M 6 17 "/>
<path style=" stroke:none;fill-rule:nonzero;fill:rgb(0%,0%,0%);fill-opacity:1;" d="M 4.332031 18.667969 L 15.667969 18.667969 C 15.851562 18.667969 16 18.519531 16 18.332031 C 16 18.148438 15.851562 18 15.667969 18 L 12.667969 18 L 12.667969 14.667969 L 13 14.667969 C 13.183594 14.667969 13.332031 14.519531 13.332031 14.332031 C 13.332031 14.148438 13.183594 14 13 14 L 7 14 C 6.816406 14 6.667969 14.148438 6.667969 14.332031 C 6.667969 14.519531 6.816406 14.667969 7 14.667969 L 7.332031 14.667969 L 7.332031 18 L 4.332031 18 C 4.148438 18 4 18.148438 4 18.332031 C 4 18.519531 4.148438 18.667969 4.332031 18.667969 Z M 10.332031 16.667969 C 10.519531 16.667969 10.667969 16.519531 10.667969 16.332031 C 10.667969 16.148438 10.519531 16 10.332031 16 L 10.332031 14.667969 L 12 14.667969 L 12 18 L 10.332031 18 Z M 8 14.667969 L 9.667969 14.667969 L 9.667969 16 C 9.480469 16 9.332031 16.148438 9.332031 16.332031 C 9.332031 16.519531 9.480469 16.667969 9.667969 16.667969 L 9.667969 18 L 8 18 Z M 8 14.667969 "/>
<path style=" stroke:none;fill-rule:nonzero;fill:rgb(0%,0%,0%);fill-opacity:1;" d="M 17.667969 14.332031 L 16.332031 14.332031 C 16.148438 14.332031 16 14.480469 16 14.667969 L 16 16.667969 C 16 16.851562 16.148438 17 16.332031 17 L 17.667969 17 C 17.851562 17 18 16.851562 18 16.667969 L 18 14.667969 C 18 14.480469 17.851562 14.332031 17.667969 14.332031 Z M 17.332031 16.332031 L 16.667969 16.332031 L 16.667969 15 L 17.332031 15 Z M 17.332031 16.332031 "/>
<path style=" stroke:none;fill-rule:nonzero;fill:rgb(0%,0%,0%);fill-opacity:1;" d="M 17.667969 10.332031 L 16.332031 10.332031 C 16.148438 10.332031 16 10.480469 16 10.667969 L 16 12.667969 C 16 12.851562 16.148438 13 16.332031 13 L 17.667969 13 C 17.851562 13 18 12.851562 18 12.667969 L 18 10.667969 C 18 10.480469 17.851562 10.332031 17.667969 10.332031 Z M 17.332031 12.332031 L 16.667969 12.332031 L 16.667969 11 L 17.332031 11 Z M 17.332031 12.332031 "/>
<path style=" stroke:none;fill-rule:nonzero;fill:rgb(0%,0%,0%);fill-opacity:1;" d="M 17 19.332031 L 3 19.332031 C 2.816406 19.332031 2.667969 19.480469 2.667969 19.667969 C 2.667969 19.851562 2.816406 20 3 20 L 17 20 C 17.183594 20 17.332031 19.851562 17.332031 19.667969 C 17.332031 19.480469 17.183594 19.332031 17 19.332031 Z M 17 19.332031 "/>
<path style=" stroke:none;fill-rule:nonzero;fill:rgb(0%,0%,0%);fill-opacity:1;" d="M 19.667969 7.332031 C 19.480469 7.332031 19.332031 7.480469 19.332031 7.667969 L 19.332031 8 L 15.667969 8 C 15.480469 8 15.332031 8.148438 15.332031 8.332031 C 15.332031 8.519531 15.480469 8.667969 15.667969 8.667969 L 19.332031 8.667969 L 19.332031 19.667969 C 19.332031 19.851562 19.480469 20 19.667969 20 C 19.851562 20 20 19.851562 20 19.667969 L 20 7.667969 C 20 7.480469 19.851562 7.332031 19.667969 7.332031 Z M 19.667969 7.332031 "/>
<path style=" stroke:none;fill-rule:nonzero;fill:rgb(0%,0%,0%);fill-opacity:1;" d="M 10.667969 12.332031 C 10.667969 12.519531 10.816406 12.667969 11 12.667969 L 12.332031 12.667969 C 12.519531 12.667969 12.667969 12.519531 12.667969 12.332031 L 12.667969 10.332031 C 12.667969 10.148438 12.519531 10 12.332031 10 L 11 10 C 10.816406 10 10.667969 10.148438 10.667969 10.332031 Z M 11.332031 10.667969 L 12 10.667969 L 12 12 L 11.332031 12 Z M 11.332031 10.667969 "/>
<path style=" stroke:none;fill-rule:nonzero;fill:rgb(0%,0%,0%);fill-opacity:1;" d="M 3.332031 16.332031 C 3.332031 16.289062 3.316406 12 1.667969 12 C 0.0195312 12 0 16.289062 0 16.332031 C 0 17.136719 0.574219 17.8125 1.332031 17.964844 L 1.332031 19.667969 C 1.332031 19.851562 1.480469 20 1.667969 20 C 1.851562 20 2 19.851562 2 19.667969 L 2 17.964844 C 2.761719 17.8125 3.332031 17.136719 3.332031 16.332031 Z M 1.667969 17.332031 C 1.113281 17.332031 0.667969 16.886719 0.667969 16.332031 C 0.667969 14.671875 1.113281 12.667969 1.667969 12.667969 C 2.222656 12.667969 2.667969 14.671875 2.667969 16.332031 C 2.667969 16.886719 2.21875 17.332031 1.667969 17.332031 Z M 1.667969 17.332031 "/>
<path style=" stroke:none;fill-rule:nonzero;fill:rgb(0%,0%,0%);fill-opacity:1;" d="M 14.667969 17 L 14.667969 7 C 14.667969 6.816406 14.519531 6.667969 14.332031 6.667969 C 14.148438 6.667969 14 6.816406 14 7 L 14 17 C 14 17.183594 14.148438 17.332031 14.332031 17.332031 C 14.519531 17.332031 14.667969 17.183594 14.667969 17 Z M 14.667969 17 "/>
<path style=" stroke:none;fill-rule:nonzero;fill:rgb(0%,0%,0%);fill-opacity:1;" d="M 11 8.667969 L 12.332031 8.667969 C 12.519531 8.667969 12.667969 8.519531 12.667969 8.332031 L 12.667969 6.332031 C 12.667969 6.148438 12.519531 6 12.332031 6 L 11 6 C 10.816406 6 10.667969 6.148438 10.667969 6.332031 L 10.667969 8.332031 C 10.667969 8.519531 10.816406 8.667969 11 8.667969 Z M 11.332031 6.667969 L 12 6.667969 L 12 8 L 11.332031 8 Z M 11.332031 6.667969 "/>
<path style=" stroke:none;fill-rule:nonzero;fill:rgb(0%,0%,0%);fill-opacity:1;" d="M 0.332031 11.667969 C 0.519531 11.667969 0.667969 11.519531 0.667969 11.332031 L 0.667969 8.667969 L 4.332031 8.667969 C 4.519531 8.667969 4.667969 8.519531 4.667969 8.332031 C 4.667969 8.148438 4.519531 8 4.332031 8 L 0.667969 8 L 0.667969 7.667969 C 0.667969 7.480469 0.519531 7.332031 0.332031 7.332031 C 0.148438 7.332031 0 7.480469 0 7.667969 L 0 11.332031 C 0 11.519531 0.148438 11.667969 0.332031 11.667969 Z M 0.332031 11.667969 "/>
</g>
</svg>
